Coordinates
version=1
nRows=29
nColumns=24
inDegrees=yes

Units are S.I. units (second, meters, Newtons, ...)
Angles are in degrees.

endheader
time	pelvis_tilt	pelvis_list	pelvis_rotation	pelvis_tx	pelvis_ty	pelvis_tz	hip_flexion_r	hip_adduction_r	hip_rotation_r	knee_angle_r	ankle_angle_r	subtalar_angle_r	mtp_angle_r	hip_flexion_l	hip_adduction_l	hip_rotation_l	knee_angle_l	ankle_angle_l	subtalar_angle_l	mtp_angle_l	lumbar_extension	lumbar_bending	lumbar_rotation
      4.98000000	    -10.40596058	     -2.13624621	      6.34382220	     -1.15922610	     -0.03321656	      1.99330704	     35.54442328	     -0.22455143	    -17.60286361	     -9.17424533	     -0.09773529	      5.85040986	     18.38514376	     -5.11821075	     -0.52879477	     -6.78658817	    -15.18934842	      9.15870527	      9.16705955	     13.82639361	      5.53003081	      1.31674815	     -9.12737895
      4.99000000	    -10.37762360	     -2.32058984	      6.48086774	     -1.14384497	     -0.03514853	      1.99437303	     35.78592850	     -0.12715463	    -17.33062931	    -11.06656302	     -0.46762612	      4.18507354	     17.87035223	     -5.20188118	     -1.17335874	     -6.73506101	    -16.82008502	      8.42799504	     10.10590116	     14.78262775	      5.79154735	      1.48442348	     -9.20413187
      5.00000000	    -10.29951208	     -2.69064179	      6.68513129	     -1.12825021	     -0.03671723	      1.99544278	     35.81491345	      0.16254561	    -16.97161937	    -12.83666974	     -0.69355970	      2.64509206	     12.65993598	     -5.19065400	     -2.05076165	     -6.63191606	    -18.53878977	      6.93348628	     10.74866837	     18.06407816	      6.05760958	      1.83807019	     -9.40134670
      5.01000000	    -10.26944464	     -3.22525721	      6.69362128	     -1.11262214	     -0.03803864	      1.99686413	     35.80267210	      0.76872061	    -16.41725515	    -14.31851076	     -1.35546680	      1.10004111	      6.23337506	     -4.93946546	     -3.13967237	     -6.86040823	    -20.56830845	      5.37141948	     11.58111224	     20.46439552	      6.38747775	      2.37973647	     -9.43206891
      5.02000000	    -10.33052094	     -3.95665675	      6.57896450	     -1.09700275	     -0.03899104	      1.99841552	     35.84513319	      1.61681374	    -15.99091367	    -15.55453569	     -2.46705920	     -0.20073637	      0.76375893	     -4.37323008	     -4.46493543	     -7.30887409	    -22.85220354	      3.32284717	     12.35399367	     23.49503349	      6.83487306	      3.14388071	     -9.38015768
      5.03000000	    -10.42266991	     -4.75977445	      6.38519541	     -1.08154072	     -0.03950432	      1.99995870	     35.96300727	      2.55884834	    -15.63548651	    -16.74476825	     -3.97393652	     -1.43281051	     -2.19571550	     -3.55091365	     -5.85914416	     -7.75152914	    -25.37329607	      0.69225577	     12.77368193	     26.57922429	      7.29594842	      4.01194532	     -9.28123196
      5.04000000	    -10.53582059	     -5.54373350	      6.17932581	     -1.06621943	     -0.03973044	      2.00138318	     36.17176296	      3.46046864	    -15.41412154	    -18.06261113	     -5.49541476	     -2.54466476	     -2.83811635	     -2.47527229	     -7.21722091	     -8.08720776	    -28.11301146	     -2.57118145	     12.75327123	     29.86815557	      7.75524223	      4.88159766	     -9.19325851
      5.05000000	    -10.69819466	     -6.22419128	      5.97392782	     -1.05100236	     -0.03991221	      2.00280683	     36.44531858	      4.26871435	    -15.23016117	    -19.47337281	     -6.79081363	     -3.70950619	     -1.80234310	     -1.13269386	     -8.43801946	     -8.23793130	    -31.03035861	     -6.45178748	     12.21876409	     33.61488571	      8.24000885	      5.63250410	     -9.11958350
      5.06000000	    -10.56241127	     -7.04508418	      5.93794007	     -1.03576217	     -0.03979186	      2.00402927	     36.23290109	      5.18635828	    -15.38190269	    -20.62892163	     -7.82020166	     -4.88116383	      1.22978116	      0.12170488	     -9.84398945	     -8.13433042	    -34.09028540	    -10.70572572	     11.34739999	     37.89548980	      8.43811708	      6.53406649	     -9.28962043
      5.07000000	    -10.62384440	     -7.78942461	      5.85683607	     -1.02083480	     -0.03998062	      2.00538205	     36.12426826	      6.08202874	    -15.42840758	    -21.64779419	     -8.32756472	     -6.05462390	      4.46539331	      1.80551148	    -11.07484322	     -7.73790035	    -37.37779776	    -14.99851617	      9.99416617	     41.22824727	      8.79378303	      7.32159686	     -9.40385297
      5.08000000	    -10.67598341	     -8.58025501	      5.75263984	     -1.00622533	     -0.04016063	      2.00675341	     35.85272935	      7.08355602	    -15.46452172	    -22.43331686	     -8.21274545	     -6.97808798	      6.80448643	      3.64601868	    -12.27094964	     -7.10211084	    -40.79321825	    -19.08354125	      8.27191606	     43.39964902	      9.09747952	      8.15694514	     -9.50191027
      5.09000000	    -10.64695274	     -9.38647678	      5.64696448	     -0.99199941	     -0.04007279	      2.00809060	     35.34378217	      8.16812012	    -15.42808792	    -22.97599305	     -7.55752619	     -7.64293559	      7.13661964	      5.53169207	    -13.37366989	     -6.26637365	    -44.26581483	    -22.69038735	      6.24555033	     43.28898051	      9.26477514	      9.01137191	     -9.57752959
      5.10000000	    -10.65133086	    -10.17012266	      5.44074360	     -0.97799153	     -0.03983554	      2.00949585	     34.74635429	      9.28382555	    -15.43553477	    -23.31378740	     -6.73489770	     -8.03658219	      7.42678044	      7.46586822	    -14.37319888	     -5.48167808	    -47.57562670	    -25.89002329	      3.91627326	     43.05270040	      9.42264076	      9.86124949	     -9.50209441
      5.11000000	    -10.73942444	    -10.86212037	      5.21236642	     -0.96418211	     -0.03947179	      2.01094224	     34.14385774	     10.28174150	    -15.61182698	    -23.51687472	     -5.79032040	     -8.11844603	      7.77488444	      9.51225060	    -15.19127922	     -4.69126638	    -50.71410533	    -28.31188930	      1.56941738	     42.31982992	      9.63526536	     10.59454735	     -9.33170314
      5.12000000	    -10.76178971	    -11.41786332	      4.94992671	     -0.95061952	     -0.03874838	      2.01239342	     33.37309969	     11.17661972	    -15.74575096	    -23.55076204	     -5.04640506	     -8.14775857	      8.64898658	     11.48419544	    -15.78022288	     -3.91843949	    -53.70312549	    -29.44818675	     -0.49085920	     39.74730930	      9.72045226	     11.20354767	     -9.07391575
      5.13000000	    -10.68684908	    -11.83843545	      4.75547912	     -0.93717800	     -0.03771554	      2.01377234	     32.40791929	     11.90241378	    -15.99094335	    -23.46006913	     -4.30792632	     -7.99673149	     10.04023817	     13.33595969	    -16.14837327	     -3.10610143	    -56.41072922	    -29.51348485	     -2.32876369	     37.73150407	      9.68813159	     11.65583131	     -8.78606495
      5.14000000	    -10.57159025	    -12.13924108	      4.62544658	     -0.92387313	     -0.03650138	      2.01505677	     31.32812529	     12.47504957	    -16.26304749	    -23.29085658	     -3.43443015	     -7.60378846	     11.30755205	     15.13556428	    -16.30105358	     -2.22238692	    -58.82106354	    -28.64169066	     -3.84281862	     36.90737284	      9.60542838	     11.97007957	     -8.49429456
      5.15000000	    -10.34799827	    -12.32191755	      4.57533609	     -0.91077259	     -0.03490580	      2.01623681	     30.04202529	     12.97427868	    -16.28724737	    -22.95081267	     -2.71507844	     -7.47249966	     12.01471150	     16.80560393	    -16.23578219	     -1.31942736	    -60.86561811	    -27.28721442	     -5.32006088	     36.67048009	      9.39036305	     12.15073470	     -8.20108519
      5.16000000	    -10.15600419	    -12.37275488	      4.45182637	     -0.89784558	     -0.03323286	      2.01745448	     28.72531465	     13.39482539	    -16.04097122	    -22.55248341	     -1.96451319	     -7.27687309	     12.69219513	     18.44471303	    -15.98888056	     -0.50975813	    -62.60098310	    -25.35394171	     -6.23378485	     36.52136502	      9.16635620	     12.20498947	     -7.76395589
      5.17000000	     -9.92211329	    -12.35340900	      4.36788533	     -0.88505273	     -0.03132343	      2.01856335	     27.27687978	     13.77845982	    -15.55126465	    -21.99999195	     -1.31377705	     -7.23830434	     12.97485840	     20.00257574	    -15.61443564	      0.25081271	    -63.95262115	    -23.44434157	     -7.04808976	     36.55462672	      8.89498781	     12.18316320	     -7.34921975
      5.18000000	     -9.68948265	    -12.28973348	      4.30779470	     -0.87236498	     -0.02934518	      2.01958548	     25.76238009	     14.12137425	    -14.94830215	    -21.33066233	     -0.68806348	     -7.21578153	     12.96341412	     21.52502224	    -15.15911652	      0.96952551	    -64.95801856	    -21.56314136	     -7.57566118	     36.80353341	      8.62921208	     12.11307219	     -6.93561825
      5.19000000	     -9.32994526	    -12.24421377	      4.37608345	     -0.85978194	     -0.02721865	      2.02041958	     24.04931540	     14.46630295	    -14.37511712	    -20.49311439	     -0.17510447	     -7.31736499	     12.25948521	     22.89903820	    -14.67167028	      1.73845278	    -65.62522927	    -19.70131954	     -7.86383252	     37.21118871	      8.25003884	     12.05286175	     -6.65562100
      5.20000000	     -9.03226354	    -12.02284467	      4.35768469	     -0.84735411	     -0.02518901	      2.02134024	     22.39751232	     14.64110783	    -13.66245275	    -19.74547118	      0.66820948	     -7.18258119	      9.96453645	     24.20146791	    -14.00250304	      2.32579677	    -65.89799289	    -18.03678407	     -8.02043788	     38.62042419	      7.88511900	     11.81707769	     -6.23357962
      5.21000000	     -8.82362527	    -11.83586870	      4.38528774	     -0.83498054	     -0.02342747	      2.02208077	     20.81366070	     14.77664123	    -13.20238534	    -18.85579274	      1.07804342	     -7.17149805	      9.80582625	     25.57966649	    -13.31526995	      2.91156690	    -65.94485640	    -16.13274142	     -7.94254055	     39.17934057	      7.63578447	     11.61639592	     -5.92215927
      5.22000000	     -8.51018360	    -11.56950517	      4.42040865	     -0.82257372	     -0.02163829	      2.02281569	     19.06385926	     14.83815846	    -12.67730302	    -17.89992693	      1.52411508	     -7.08894121	      9.45340908	     26.70418238	    -12.56583683	      3.36046199	    -65.60362974	    -14.34061282	     -7.89298881	     40.18996195	      7.27769766	     11.34343079	     -5.66193881
      5.23000000	     -8.22663964	    -11.16968871	      4.45592724	     -0.81028245	     -0.01992334	      2.02356527	     17.34331589	     14.73540091	    -12.18599476	    -16.95858942	      1.96424476	     -6.98551593	      8.83193441	     27.72937212	    -11.66985178	      3.69355397	    -64.88555022	    -12.77978230	     -7.95088107	     41.58450262	      6.92182394	     10.92003447	     -5.32256193
      5.24000000	     -8.25805858	    -10.78528574	      4.38127712	     -0.79808284	     -0.01878918	      2.02436405	     16.00581519	     14.59818115	    -11.71738247	    -16.10077518	      2.41004986	     -6.77537619	      8.77635273	     29.04328515	    -10.80099793	      3.91255968	    -63.99478801	    -11.20951871	     -7.85010455	     41.92611091	      6.88479171	     10.51086975	     -4.99195683
      5.25000000	     -8.04369751	    -10.41606706	      4.27167487	     -0.78585658	     -0.01751900	      2.02529027	     14.34525477	     14.50730362	    -11.28780304	    -15.13575474	      2.76407535	     -6.49406494	      8.56716367	     29.95427347	    -10.08154571	      3.94122989	    -62.78562878	     -9.72967621	     -7.68434612	     42.22822392	      6.57226935	     10.13333528	     -4.54249660
      5.26000000	     -7.88624835	     -9.99119959	      4.15873808	     -0.77370267	     -0.01643761	      2.02619500	     12.75517227	     14.33061424	    -10.83181435	    -14.19159991	      3.12015468	     -6.21594912	      8.33206429	     30.83763832	     -9.32510252	      3.87559002	    -61.31431485	     -8.54823746	     -7.58995367	     42.19034423	      6.30643255	      9.69079005	     -4.13326919
